<?xml version="1.0" encoding="utf-8" ?>
<svg baseProfile="tiny" height="2200px" version="1.2" width="500px" xmlns="http://www.w3.org/2000/svg" xmlns:ev="http://www.w3.org/2001/xml-events" xmlns:xlink="http://www.w3.org/1999/xlink"><defs /><rect fill="rgb(10%,10%,16%)" height="100%" width="100%" x="0" y="0" /><line stroke="rgb(100%,100%,100%)" x1="0" x2="0" y1="0" y2="2200" /><line stroke="rgb(100%,100%,100%)" x1="20" x2="20" y1="0" y2="2200" /><line stroke="rgb(100%,100%,100%)" x1="40" x2="40" y1="0" y2="2200" /><line stroke="rgb(100%,100%,100%)" x1="60" x2="60" y1="0" y2="2200" /><line stroke="rgb(100%,100%,100%)" x1="80" x2="80" y1="0" y2="2200" /><line stroke="rgb(100%,100%,100%)" x1="100" x2="100" y1="0" y2="2200" /><line stroke="rgb(100%,100%,100%)" x1="120" x2="120" y1="0" y2="2200" /><line stroke="rgb(100%,100%,100%)" x1="140" x2="140" y1="0" y2="2200" /><line stroke="rgb(100%,100%,100%)" x1="160" x2="160" y1="0" y2="2200" /><line stroke="rgb(100%,100%,100%)" x1="180" x2="180" y1="0" y2="2200" /><line stroke="rgb(100%,100%,100%)" x1="200" x2="200" y1="0" y2="2200" /><line stroke="rgb(100%,100%,100%)" x1="220" x2="220" y1="0" y2="2200" /><line stroke="rgb(100%,100%,100%)" x1="240" x2="240" y1="0" y2="2200" /><line stroke="rgb(100%,100%,100%)" x1="260" x2="260" y1="0" y2="2200" /><line stroke="rgb(100%,100%,100%)" x1="280" x2="280" y1="0" y2="2200" /><line stroke="rgb(100%,100%,100%)" x1="300" x2="300" y1="0" y2="2200" /><line stroke="rgb(100%,100%,100%)" x1="320" x2="320" y1="0" y2="2200" /><line stroke="rgb(100%,100%,100%)" x1="340" x2="340" y1="0" y2="2200" /><line stroke="rgb(100%,100%,100%)" x1="360" x2="360" y1="0" y2="2200" /><line stroke="rgb(100%,100%,100%)" x1="380" x2="380" y1="0" y2="2200" /><line stroke="rgb(100%,100%,100%)" x1="400" x2="400" y1="0" y2="2200" /><line stroke="rgb(100%,100%,100%)" x1="420" x2="420" y1="0" y2="2200" /><line stroke="rgb(100%,100%,100%)" x1="440" x2="440" y1="0" y2="2200" /><line stroke="rgb(100%,100%,100%)" x1="460" x2="460" y1="0" y2="2200" /><line stroke="rgb(100%,100%,100%)" x1="480" x2="480" y1="0" y2="2200" /><line stroke="rgb(100%,100%,100%)" x1="500" x2="500" y1="0" y2="2200" /><line stroke="rgb(100%,100%,100%)" x1="0" x2="500" y1="0" y2="0" /><line stroke="rgb(100%,100%,100%)" x1="0" x2="500" y1="20" y2="20" /><line stroke="rgb(100%,100%,100%)" x1="0" x2="500" y1="40" y2="40" /><line stroke="rgb(100%,100%,100%)" x1="0" x2="500" y1="60" y2="60" /><line stroke="rgb(100%,100%,100%)" x1="0" x2="500" y1="80" y2="80" /><line stroke="rgb(100%,100%,100%)" x1="0" x2="500" y1="100" y2="100" /><line stroke="rgb(100%,100%,100%)" x1="0" x2="500" y1="120" y2="120" /><line stroke="rgb(100%,100%,100%)" x1="0" x2="500" y1="140" y2="140" /><line stroke="rgb(100%,100%,100%)" x1="0" x2="500" y1="160" y2="160" /><line stroke="rgb(100%,100%,100%)" x1="0" x2="500" y1="180" y2="180" /><line stroke="rgb(100%,100%,100%)" x1="0" x2="500" y1="200" y2="200" /><line stroke="rgb(100%,100%,100%)" x1="0" x2="500" y1="220" y2="220" /><line stroke="rgb(100%,100%,100%)" x1="0" x2="500" y1="240" y2="240" /><line stroke="rgb(100%,100%,100%)" x1="0" x2="500" y1="260" y2="260" /><line stroke="rgb(100%,100%,100%)" x1="0" x2="500" y1="280" y2="280" /><line stroke="rgb(100%,100%,100%)" x1="0" x2="500" y1="300" y2="300" /><line stroke="rgb(100%,100%,100%)" x1="0" x2="500" y1="320" y2="320" /><line stroke="rgb(100%,100%,100%)" x1="0" x2="500" y1="340" y2="340" /><line stroke="rgb(100%,100%,100%)" x1="0" x2="500" y1="360" y2="360" /><line stroke="rgb(100%,100%,100%)" x1="0" x2="500" y1="380" y2="380" /><line stroke="rgb(100%,100%,100%)" x1="0" x2="500" y1="400" y2="400" /><line stroke="rgb(100%,100%,100%)" x1="0" x2="500" y1="420" y2="420" /><line stroke="rgb(100%,100%,100%)" x1="0" x2="500" y1="440" y2="440" /><line stroke="rgb(100%,100%,100%)" x1="0" x2="500" y1="460" y2="460" /><line stroke="rgb(100%,100%,100%)" x1="0" x2="500" y1="480" y2="480" /><line stroke="rgb(100%,100%,100%)" x1="0" x2="500" y1="500" y2="500" /><line stroke="rgb(100%,100%,100%)" x1="0" x2="500" y1="520" y2="520" /><line stroke="rgb(100%,100%,100%)" x1="0" x2="500" y1="540" y2="540" /><line stroke="rgb(100%,100%,100%)" x1="0" x2="500" y1="560" y2="560" /><line stroke="rgb(100%,100%,100%)" x1="0" x2="500" y1="580" y2="580" /><line stroke="rgb(100%,100%,100%)" x1="0" x2="500" y1="600" y2="600" /><line stroke="rgb(100%,100%,100%)" x1="0" x2="500" y1="620" y2="620" /><line stroke="rgb(100%,100%,100%)" x1="0" x2="500" y1="640" y2="640" /><line stroke="rgb(100%,100%,100%)" x1="0" x2="500" y1="660" y2="660" /><line stroke="rgb(100%,100%,100%)" x1="0" x2="500" y1="680" y2="680" /><line stroke="rgb(100%,100%,100%)" x1="0" x2="500" y1="700" y2="700" /><line stroke="rgb(100%,100%,100%)" x1="0" x2="500" y1="720" y2="720" /><line stroke="rgb(100%,100%,100%)" x1="0" x2="500" y1="740" y2="740" /><line stroke="rgb(100%,100%,100%)" x1="0" x2="500" y1="760" y2="760" /><line stroke="rgb(100%,100%,100%)" x1="0" x2="500" y1="780" y2="780" /><line stroke="rgb(100%,100%,100%)" x1="0" x2="500" y1="800" y2="800" /><line stroke="rgb(100%,100%,100%)" x1="0" x2="500" y1="820" y2="820" /><line stroke="rgb(100%,100%,100%)" x1="0" x2="500" y1="840" y2="840" /><line stroke="rgb(100%,100%,100%)" x1="0" x2="500" y1="860" y2="860" /><line stroke="rgb(100%,100%,100%)" x1="0" x2="500" y1="880" y2="880" /><line stroke="rgb(100%,100%,100%)" x1="0" x2="500" y1="900" y2="900" /><line stroke="rgb(100%,100%,100%)" x1="0" x2="500" y1="920" y2="920" /><line stroke="rgb(100%,100%,100%)" x1="0" x2="500" y1="940" y2="940" /><line stroke="rgb(100%,100%,100%)" x1="0" x2="500" y1="960" y2="960" /><line stroke="rgb(100%,100%,100%)" x1="0" x2="500" y1="980" y2="980" /><line stroke="rgb(100%,100%,100%)" x1="0" x2="500" y1="1000" y2="1000" /><line stroke="rgb(100%,100%,100%)" x1="0" x2="500" y1="1020" y2="1020" /><line stroke="rgb(100%,100%,100%)" x1="0" x2="500" y1="1040" y2="1040" /><line stroke="rgb(100%,100%,100%)" x1="0" x2="500" y1="1060" y2="1060" /><line stroke="rgb(100%,100%,100%)" x1="0" x2="500" y1="1080" y2="1080" /><line stroke="rgb(100%,100%,100%)" x1="0" x2="500" y1="1100" y2="1100" /><line stroke="rgb(100%,100%,100%)" x1="0" x2="500" y1="1120" y2="1120" /><line stroke="rgb(100%,100%,100%)" x1="0" x2="500" y1="1140" y2="1140" /><line stroke="rgb(100%,100%,100%)" x1="0" x2="500" y1="1160" y2="1160" /><line stroke="rgb(100%,100%,100%)" x1="0" x2="500" y1="1180" y2="1180" /><line stroke="rgb(100%,100%,100%)" x1="0" x2="500" y1="1200" y2="1200" /><line stroke="rgb(100%,100%,100%)" x1="0" x2="500" y1="1220" y2="1220" /><line stroke="rgb(100%,100%,100%)" x1="0" x2="500" y1="1240" y2="1240" /><line stroke="rgb(100%,100%,100%)" x1="0" x2="500" y1="1260" y2="1260" /><line stroke="rgb(100%,100%,100%)" x1="0" x2="500" y1="1280" y2="1280" /><line stroke="rgb(100%,100%,100%)" x1="0" x2="500" y1="1300" y2="1300" /><line stroke="rgb(100%,100%,100%)" x1="0" x2="500" y1="1320" y2="1320" /><line stroke="rgb(100%,100%,100%)" x1="0" x2="500" y1="1340" y2="1340" /><line stroke="rgb(100%,100%,100%)" x1="0" x2="500" y1="1360" y2="1360" /><line stroke="rgb(100%,100%,100%)" x1="0" x2="500" y1="1380" y2="1380" /><line stroke="rgb(100%,100%,100%)" x1="0" x2="500" y1="1400" y2="1400" /><line stroke="rgb(100%,100%,100%)" x1="0" x2="500" y1="1420" y2="1420" /><line stroke="rgb(100%,100%,100%)" x1="0" x2="500" y1="1440" y2="1440" /><line stroke="rgb(100%,100%,100%)" x1="0" x2="500" y1="1460" y2="1460" /><line stroke="rgb(100%,100%,100%)" x1="0" x2="500" y1="1480" y2="1480" /><line stroke="rgb(100%,100%,100%)" x1="0" x2="500" y1="1500" y2="1500" /><line stroke="rgb(100%,100%,100%)" x1="0" x2="500" y1="1520" y2="1520" /><line stroke="rgb(100%,100%,100%)" x1="0" x2="500" y1="1540" y2="1540" /><line stroke="rgb(100%,100%,100%)" x1="0" x2="500" y1="1560" y2="1560" /><line stroke="rgb(100%,100%,100%)" x1="0" x2="500" y1="1580" y2="1580" /><line stroke="rgb(100%,100%,100%)" x1="0" x2="500" y1="1600" y2="1600" /><line stroke="rgb(100%,100%,100%)" x1="0" x2="500" y1="1620" y2="1620" /><line stroke="rgb(100%,100%,100%)" x1="0" x2="500" y1="1640" y2="1640" /><line stroke="rgb(100%,100%,100%)" x1="0" x2="500" y1="1660" y2="1660" /><line stroke="rgb(100%,100%,100%)" x1="0" x2="500" y1="1680" y2="1680" /><line stroke="rgb(100%,100%,100%)" x1="0" x2="500" y1="1700" y2="1700" /><line stroke="rgb(100%,100%,100%)" x1="0" x2="500" y1="1720" y2="1720" /><line stroke="rgb(100%,100%,100%)" x1="0" x2="500" y1="1740" y2="1740" /><line stroke="rgb(100%,100%,100%)" x1="0" x2="500" y1="1760" y2="1760" /><line stroke="rgb(100%,100%,100%)" x1="0" x2="500" y1="1780" y2="1780" /><line stroke="rgb(100%,100%,100%)" x1="0" x2="500" y1="1800" y2="1800" /><line stroke="rgb(100%,100%,100%)" x1="0" x2="500" y1="1820" y2="1820" /><line stroke="rgb(100%,100%,100%)" x1="0" x2="500" y1="1840" y2="1840" /><line stroke="rgb(100%,100%,100%)" x1="0" x2="500" y1="1860" y2="1860" /><line stroke="rgb(100%,100%,100%)" x1="0" x2="500" y1="1880" y2="1880" /><line stroke="rgb(100%,100%,100%)" x1="0" x2="500" y1="1900" y2="1900" /><line stroke="rgb(100%,100%,100%)" x1="0" x2="500" y1="1920" y2="1920" /><line stroke="rgb(100%,100%,100%)" x1="0" x2="500" y1="1940" y2="1940" /><line stroke="rgb(100%,100%,100%)" x1="0" x2="500" y1="1960" y2="1960" /><line stroke="rgb(100%,100%,100%)" x1="0" x2="500" y1="1980" y2="1980" /><line stroke="rgb(100%,100%,100%)" x1="0" x2="500" y1="2000" y2="2000" /><line stroke="rgb(100%,100%,100%)" x1="0" x2="500" y1="2020" y2="2020" /><line stroke="rgb(100%,100%,100%)" x1="0" x2="500" y1="2040" y2="2040" /><line stroke="rgb(100%,100%,100%)" x1="0" x2="500" y1="2060" y2="2060" /><line stroke="rgb(100%,100%,100%)" x1="0" x2="500" y1="2080" y2="2080" /><line stroke="rgb(100%,100%,100%)" x1="0" x2="500" y1="2100" y2="2100" /><line stroke="rgb(100%,100%,100%)" x1="0" x2="500" y1="2120" y2="2120" /><line stroke="rgb(100%,100%,100%)" x1="0" x2="500" y1="2140" y2="2140" /><line stroke="rgb(100%,100%,100%)" x1="0" x2="500" y1="2160" y2="2160" /><line stroke="rgb(100%,100%,100%)" x1="0" x2="500" y1="2180" y2="2180" /><line stroke="rgb(100%,100%,100%)" x1="0" x2="500" y1="2200" y2="2200" /></svg>