<svg viewBox="0 0 2000 1000" xmlns="http://www.w3.org/2000/svg"><mask id="b" x="0" y="0" width="2000" height="1000"><path fill="url(#a)" d="M0 0h2000v1000H0z"/></mask><path fill="#000336" d="M0 0h2000v1000H0z"/><g style="transform-origin:center center" stroke="#4c4e72" stroke-width="2" mask="url(#b)"><path fill="none" d="M0 0h100v100H0zM100 0h100v100H100z"/><path fill="#4c4e72d1" d="M200 0h100v100H200z"/><path fill="#4c4e72f8" d="M300 0h100v100H300z"/><path fill="#4c4e72b9" d="M400 0h100v100H400z"/><path fill="none" d="M500 0h100v100H500zM600 0h100v100H600z"/><path fill="#4c4e726c" d="M700 0h100v100H700z"/><path fill="none" d="M800 0h100v100H800zM900 0h100v100H900zM1000 0h100v100h-100z"/><path fill="#4c4e72d5" d="M1100 0h100v100h-100z"/><path fill="none" d="M1200 0h100v100h-100zM1300 0h100v100h-100zM1400 0h100v100h-100zM1500 0h100v100h-100zM1600 0h100v100h-100zM1700 0h100v100h-100z"/><path fill="#4c4e72fa" d="M1800 0h100v100h-100z"/><path fill="none" d="M1900 0h100v100h-100zM0 100h100v100H0z"/><path fill="#4c4e7278" d="M100 100h100v100H100z"/><path fill="none" d="M200 100h100v100H200zM300 100h100v100H300z"/><path fill="#4c4e7271" d="M400 100h100v100H400z"/><path fill="none" d="M500 100h100v100H500zM600 100h100v100H600zM700 100h100v100H700zM800 100h100v100H800zM900 100h100v100H900zM1000 100h100v100h-100zM1100 100h100v100h-100zM1200 100h100v100h-100z"/><path fill="#4c4e7270" d="M1300 100h100v100h-100z"/><path fill="#4c4e7201" d="M1400 100h100v100h-100z"/><path fill="none" d="M1500 100h100v100h-100z"/><path fill="#4c4e728a" d="M1600 100h100v100h-100z"/><path fill="none" d="M1700 100h100v100h-100z"/><path fill="#4c4e72a8" d="M1800 100h100v100h-100z"/><path fill="none" d="M1900 100h100v100h-100zM0 200h100v100H0zM100 200h100v100H100z"/><path fill="#4c4e728c" d="M200 200h100v100H200z"/><path fill="#4c4e72c4" d="M300 200h100v100H300z"/><path fill="#4c4e7287" d="M400 200h100v100H400z"/><path fill="none" d="M500 200h100v100H500zM600 200h100v100H600zM700 200h100v100H700z"/><path fill="#4c4e7229" d="M800 200h100v100H800z"/><path fill="none" d="M900 200h100v100H900z"/><path fill="#4c4e727d" d="M1000 200h100v100h-100z"/><path fill="none" d="M1100 200h100v100h-100z"/><path fill="#4c4e72dd" d="M1200 200h100v100h-100z"/><path fill="none" d="M1300 200h100v100h-100zM1400 200h100v100h-100z"/><path fill="#4c4e7224" d="M1500 200h100v100h-100z"/><path fill="none" d="M1600 200h100v100h-100zM1700 200h100v100h-100zM1800 200h100v100h-100zM1900 200h100v100h-100zM0 300h100v100H0zM100 300h100v100H100zM200 300h100v100H200z"/><path fill="#4c4e7278" d="M300 300h100v100H300z"/><path fill="none" d="M400 300h100v100H400zM500 300h100v100H500zM600 300h100v100H600zM700 300h100v100H700zM800 300h100v100H800z"/><path fill="#4c4e7262" d="M900 300h100v100H900z"/><path fill="none" d="M1000 300h100v100h-100zM1100 300h100v100h-100zM1200 300h100v100h-100zM1300 300h100v100h-100z"/><path fill="#4c4e72bd" d="M1400 300h100v100h-100z"/><path fill="none" d="M1500 300h100v100h-100zM1600 300h100v100h-100zM1700 300h100v100h-100zM1800 300h100v100h-100z"/><path fill="#4c4e722d" d="M1900 300h100v100h-100z"/><path fill="none" d="M0 400h100v100H0zM100 400h100v100H100zM200 400h100v100H200zM300 400h100v100H300z"/><path fill="#4c4e72da" d="M400 400h100v100H400z"/><path fill="#4c4e726a" d="M500 400h100v100H500z"/><path fill="none" d="M600 400h100v100H600zM700 400h100v100H700zM800 400h100v100H800zM900 400h100v100H900zM1000 400h100v100h-100zM1100 400h100v100h-100z"/><path fill="#4c4e72b1" d="M1200 400h100v100h-100z"/><path fill="none" d="M1300 400h100v100h-100zM1400 400h100v100h-100zM1500 400h100v100h-100zM1600 400h100v100h-100zM1700 400h100v100h-100zM1800 400h100v100h-100z"/><path fill="#4c4e72fa" d="M1900 400h100v100h-100z"/><path fill="none" d="M0 500h100v100H0zM100 500h100v100H100zM200 500h100v100H200z"/><path fill="#4c4e72bf" d="M300 500h100v100H300z"/><path fill="none" d="M400 500h100v100H400zM500 500h100v100H500zM600 500h100v100H600zM700 500h100v100H700zM800 500h100v100H800z"/><path fill="#4c4e72f7" d="M900 500h100v100H900z"/><path fill="none" d="M1000 500h100v100h-100z"/><path fill="#4c4e72e7" d="M1100 500h100v100h-100z"/><path fill="none" d="M1200 500h100v100h-100z"/><path fill="#4c4e726d" d="M1300 500h100v100h-100z"/><path fill="none" d="M1400 500h100v100h-100zM1500 500h100v100h-100zM1600 500h100v100h-100zM1700 500h100v100h-100z"/><path fill="#4c4e7234" d="M1800 500h100v100h-100z"/><path fill="#4c4e722f" d="M1900 500h100v100h-100z"/><path fill="none" d="M0 600h100v100H0zM100 600h100v100H100zM200 600h100v100H200zM300 600h100v100H300zM400 600h100v100H400zM500 600h100v100H500zM600 600h100v100H600zM700 600h100v100H700zM800 600h100v100H800zM900 600h100v100H900zM1000 600h100v100h-100zM1100 600h100v100h-100z"/><path fill="#4c4e729f" d="M1200 600h100v100h-100z"/><path fill="none" d="M1300 600h100v100h-100zM1400 600h100v100h-100z"/><path fill="#4c4e7251" d="M1500 600h100v100h-100z"/><path fill="none" d="M1600 600h100v100h-100zM1700 600h100v100h-100zM1800 600h100v100h-100zM1900 600h100v100h-100zM0 700h100v100H0zM100 700h100v100H100z"/><path fill="#4c4e72d7" d="M200 700h100v100H200z"/><path fill="none" d="M300 700h100v100H300zM400 700h100v100H400zM500 700h100v100H500z"/><path fill="#4c4e721f" d="M600 700h100v100H600z"/><path fill="none" d="M700 700h100v100H700zM800 700h100v100H800z"/><path fill="#4c4e7266" d="M900 700h100v100H900z"/><path fill="none" d="M1000 700h100v100h-100zM1100 700h100v100h-100z"/><path fill="#4c4e7220" d="M1200 700h100v100h-100z"/><path fill="none" d="M1300 700h100v100h-100zM1400 700h100v100h-100zM1500 700h100v100h-100z"/><path fill="#4c4e72f2" d="M1600 700h100v100h-100z"/><path fill="#4c4e7228" d="M1700 700h100v100h-100z"/><path fill="none" d="M1800 700h100v100h-100zM1900 700h100v100h-100zM0 800h100v100H0z"/><path fill="#4c4e7278" d="M100 800h100v100H100z"/><path fill="none" d="M200 800h100v100H200zM300 800h100v100H300zM400 800h100v100H400z"/><path fill="#4c4e72e3" d="M500 800h100v100H500z"/><path fill="#4c4e7237" d="M600 800h100v100H600z"/><path fill="none" d="M700 800h100v100H700zM800 800h100v100H800zM900 800h100v100H900zM1000 800h100v100h-100zM1100 800h100v100h-100z"/><path fill="#4c4e7285" d="M1200 800h100v100h-100z"/><path fill="#4c4e7218" d="M1300 800h100v100h-100z"/><path fill="none" d="M1400 800h100v100h-100z"/><path fill="#4c4e7251" d="M1500 800h100v100h-100z"/><path fill="none" d="M1600 800h100v100h-100zM1700 800h100v100h-100zM1800 800h100v100h-100zM1900 800h100v100h-100zM0 900h100v100H0z"/><path fill="#4c4e7256" d="M100 900h100v100H100z"/><path fill="none" d="M200 900h100v100H200zM300 900h100v100H300zM400 900h100v100H400z"/><path fill="#4c4e7216" d="M500 900h100v100H500z"/><path fill="none" d="M600 900h100v100H600z"/><path fill="#4c4e7265" d="M700 900h100v100H700z"/><path fill="none" d="M800 900h100v100H800z"/><path fill="#4c4e72d9" d="M900 900h100v100H900z"/><path fill="none" d="M1000 900h100v100h-100z"/><path fill="#4c4e72be" d="M1100 900h100v100h-100z"/><path fill="#4c4e7279" d="M1200 900h100v100h-100z"/><path fill="none" d="M1300 900h100v100h-100zM1400 900h100v100h-100zM1500 900h100v100h-100z"/><path fill="#4c4e7285" d="M1600 900h100v100h-100z"/><path fill="none" d="M1700 900h100v100h-100z"/><path fill="#4c4e72a6" d="M1800 900h100v100h-100z"/><path fill="#4c4e7249" d="M1900 900h100v100h-100z"/></g><defs><radialGradient id="a"><stop offset="0" stop-color="#fff"/><stop offset="1" stop-color="#fff" stop-opacity="0"/></radialGradient></defs></svg>